<svg xmlns="http://www.w3.org/2000/svg" width="257.63" height="35" viewBox="0 0 257.63 35"><rect class="svg__rect" x="0" y="0" width="64.89" height="35" fill="#FFFFFF"/><rect class="svg__rect" x="62.89" y="0" width="194.74" height="35" fill="#D60000"/><path class="svg__text" d="M14.08 19.16L14.08 19.16L14.08 13.47L15.56 13.47L15.56 19.18Q15.56 20.03 15.99 20.48Q16.43 20.93 17.27 20.93L17.27 20.93Q18.98 20.93 18.98 19.13L18.98 19.13L18.98 13.47L20.46 13.47L20.46 19.17Q20.46 20.53 19.59 21.32Q18.72 22.12 17.27 22.12L17.27 22.12Q15.81 22.12 14.94 21.33Q14.08 20.55 14.08 19.16ZM24.59 19.42L24.59 19.42L26.08 19.42Q26.08 20.15 26.56 20.55Q27.04 20.95 27.93 20.95L27.93 20.95Q28.71 20.95 29.10 20.63Q29.49 20.32 29.49 19.80L29.49 19.80Q29.49 19.24 29.09 18.94Q28.70 18.63 27.66 18.32Q26.63 18.01 26.02 17.63L26.02 17.63Q24.86 16.90 24.86 15.72L24.86 15.72Q24.86 14.69 25.70 14.02Q26.54 13.35 27.88 13.35L27.88 13.35Q28.77 13.35 29.47 13.68Q30.17 14.01 30.56 14.61Q30.96 15.22 30.96 15.96L30.96 15.96L29.49 15.96Q29.49 15.29 29.07 14.91Q28.65 14.54 27.87 14.54L27.87 14.54Q27.14 14.54 26.74 14.85Q26.34 15.16 26.34 15.71L26.34 15.71Q26.34 16.18 26.77 16.50Q27.21 16.81 28.20 17.10Q29.20 17.40 29.80 17.78Q30.41 18.16 30.69 18.65Q30.97 19.13 30.97 19.79L30.97 19.79Q30.97 20.86 30.15 21.49Q29.33 22.12 27.93 22.12L27.93 22.12Q27.01 22.12 26.23 21.77Q25.46 21.43 25.02 20.83Q24.59 20.22 24.59 19.42ZM40.84 22L35.26 22L35.26 13.47L40.80 13.47L40.80 14.66L36.74 14.66L36.74 17.02L40.24 17.02L40.24 18.19L36.74 18.19L36.74 20.82L40.84 20.82L40.84 22ZM44.60 19.42L44.60 19.42L46.08 19.42Q46.08 20.15 46.56 20.55Q47.04 20.95 47.94 20.95L47.94 20.95Q48.71 20.95 49.10 20.63Q49.49 20.32 49.49 19.80L49.49 19.80Q49.49 19.24 49.10 18.94Q48.70 18.63 47.67 18.32Q46.64 18.01 46.03 17.63L46.03 17.63Q44.86 16.90 44.86 15.72L44.86 15.72Q44.86 14.69 45.70 14.02Q46.54 13.35 47.89 13.35L47.89 13.35Q48.78 13.35 49.47 13.68Q50.17 14.01 50.57 14.61Q50.97 15.22 50.97 15.96L50.97 15.96L49.49 15.96Q49.49 15.29 49.07 14.91Q48.65 14.54 47.87 14.54L47.87 14.54Q47.15 14.54 46.75 14.85Q46.34 15.16 46.34 15.71L46.34 15.71Q46.34 16.18 46.78 16.50Q47.21 16.81 48.21 17.10Q49.20 17.40 49.81 17.78Q50.41 18.16 50.69 18.65Q50.97 19.13 50.97 19.79L50.97 19.79Q50.97 20.86 50.16 21.49Q49.34 22.12 47.94 22.12L47.94 22.12Q47.01 22.12 46.24 21.77Q45.46 21.43 45.03 20.83Q44.60 20.22 44.60 19.42Z" fill="#000000"/><path class="svg__text" d="M79.46 22L77.08 22L77.08 13.60L80.92 13.60Q82.06 13.60 82.90 13.98Q83.74 14.35 84.20 15.06Q84.65 15.76 84.65 16.71L84.65 16.71Q84.65 17.62 84.23 18.30Q83.80 18.98 83.01 19.36L83.01 19.36L84.82 22L82.28 22L80.75 19.77L79.46 19.77L79.46 22ZM79.46 15.47L79.46 17.93L80.78 17.93Q81.51 17.93 81.88 17.61Q82.25 17.29 82.25 16.71L82.25 16.71Q82.25 16.12 81.88 15.79Q81.51 15.47 80.78 15.47L80.78 15.47L79.46 15.47ZM96.19 22L89.44 22L89.44 13.60L96.03 13.60L96.03 15.44L91.80 15.44L91.80 16.85L95.53 16.85L95.53 18.63L91.80 18.63L91.80 20.17L96.19 20.17L96.19 22ZM102.41 22L99.98 22L103.69 13.60L106.03 13.60L109.75 22L107.28 22L106.62 20.37L103.07 20.37L102.41 22ZM104.85 15.93L103.76 18.61L105.92 18.61L104.85 15.93ZM113.48 17.80L113.48 17.80Q113.48 16.54 114.07 15.54Q114.67 14.55 115.72 13.99Q116.78 13.43 118.09 13.43L118.09 13.43Q119.25 13.43 120.17 13.84Q121.09 14.25 121.71 15.02L121.71 15.02L120.20 16.39Q119.38 15.40 118.22 15.40L118.22 15.40Q117.53 15.40 117.00 15.70Q116.46 16 116.17 16.54Q115.87 17.09 115.87 17.80L115.87 17.80Q115.87 18.51 116.17 19.05Q116.46 19.60 117.00 19.90Q117.53 20.20 118.22 20.20L118.22 20.20Q119.38 20.20 120.20 19.22L120.20 19.22L121.71 20.58Q121.10 21.35 120.17 21.76Q119.25 22.17 118.09 22.17L118.09 22.17Q116.78 22.17 115.72 21.61Q114.67 21.05 114.07 20.05Q113.48 19.06 113.48 17.80ZM128.04 15.48L125.45 15.48L125.45 13.60L132.98 13.60L132.98 15.48L130.41 15.48L130.41 22L128.04 22L128.04 15.48ZM140.59 19.46L137.08 19.46L137.08 17.71L140.59 17.71L140.59 19.46ZM147.86 22L145.49 22L145.49 13.60L149.33 13.60Q150.47 13.60 151.31 13.98Q152.15 14.35 152.61 15.06Q153.06 15.76 153.06 16.71L153.06 16.71Q153.06 17.62 152.63 18.30Q152.21 18.98 151.42 19.36L151.42 19.36L153.23 22L150.68 22L149.16 19.77L147.86 19.77L147.86 22ZM147.86 15.47L147.86 17.93L149.18 17.93Q149.92 17.93 150.29 17.61Q150.66 17.29 150.66 16.71L150.66 16.71Q150.66 16.12 150.29 15.79Q149.92 15.47 149.18 15.47L149.18 15.47L147.86 15.47ZM157.42 17.80L157.42 17.80Q157.42 16.55 158.03 15.55Q158.63 14.56 159.69 14.00Q160.76 13.43 162.09 13.43L162.09 13.43Q163.42 13.43 164.48 14.00Q165.54 14.56 166.15 15.55Q166.76 16.55 166.76 17.80L166.76 17.80Q166.76 19.05 166.15 20.04Q165.54 21.04 164.48 21.60Q163.42 22.17 162.09 22.17L162.09 22.17Q160.76 22.17 159.69 21.60Q158.63 21.04 158.03 20.04Q157.42 19.05 157.42 17.80ZM159.82 17.80L159.82 17.80Q159.82 18.51 160.12 19.05Q160.42 19.60 160.94 19.90Q161.45 20.20 162.09 20.20L162.09 20.20Q162.72 20.20 163.24 19.90Q163.76 19.60 164.05 19.05Q164.35 18.51 164.35 17.80L164.35 17.80Q164.35 17.09 164.05 16.54Q163.76 16 163.24 15.70Q162.72 15.40 162.09 15.40L162.09 15.40Q161.45 15.40 160.93 15.70Q160.42 16 160.12 16.54Q159.82 17.09 159.82 17.80ZM171.41 18.26L171.41 18.26L171.41 13.60L173.79 13.60L173.79 18.19Q173.79 20.20 175.39 20.20L175.39 20.20Q176.97 20.20 176.97 18.19L176.97 18.19L176.97 13.60L179.31 13.60L179.31 18.26Q179.31 20.13 178.27 21.15Q177.23 22.17 175.36 22.17L175.36 22.17Q173.49 22.17 172.45 21.15Q171.41 20.13 171.41 18.26ZM186.19 15.48L183.61 15.48L183.61 13.60L191.13 13.60L191.13 15.48L188.56 15.48L188.56 22L186.19 22L186.19 15.48ZM202.25 22L195.50 22L195.50 13.60L202.09 13.60L202.09 15.44L197.86 15.44L197.86 16.85L201.59 16.85L201.59 18.63L197.86 18.63L197.86 20.17L202.25 20.17L202.25 22ZM209.43 22L207.05 22L207.05 13.60L210.89 13.60Q212.04 13.60 212.87 13.98Q213.71 14.35 214.17 15.06Q214.63 15.76 214.63 16.71L214.63 16.71Q214.63 17.62 214.20 18.30Q213.77 18.98 212.98 19.36L212.98 19.36L214.79 22L212.25 22L210.72 19.77L209.43 19.77L209.43 22ZM209.43 15.47L209.43 17.93L210.75 17.93Q211.48 17.93 211.85 17.61Q212.22 17.29 212.22 16.71L212.22 16.71Q212.22 16.12 211.85 15.79Q211.48 15.47 210.75 15.47L210.75 15.47L209.43 15.47ZM228.97 22L225.38 13.60L227.95 13.60L230.23 19.07L232.56 13.60L234.91 13.60L231.31 22L228.97 22ZM238.63 18.03L238.63 18.03Q238.63 16.59 239.19 15.55Q239.75 14.51 240.75 13.97Q241.76 13.43 243.09 13.43L243.09 13.43Q243.81 13.43 244.46 13.59Q245.11 13.74 245.56 14.04L245.56 14.04L244.70 15.75Q244.09 15.31 243.16 15.31L243.16 15.31Q242.24 15.31 241.68 15.82Q241.12 16.32 241.03 17.27L241.03 17.27Q241.75 16.65 242.93 16.65L242.93 16.65Q243.72 16.65 244.38 16.98Q245.04 17.31 245.43 17.91Q245.82 18.52 245.82 19.30L245.82 19.30Q245.82 20.15 245.38 20.80Q244.94 21.46 244.19 21.82Q243.44 22.17 242.52 22.17L242.52 22.17Q240.72 22.17 239.68 21.10Q238.63 20.03 238.63 18.03ZM241.20 19.42L241.20 19.42Q241.20 19.89 241.52 20.18Q241.83 20.48 242.38 20.48L242.38 20.48Q242.88 20.48 243.20 20.19Q243.51 19.90 243.51 19.41L243.51 19.41Q243.51 18.93 243.20 18.64Q242.88 18.35 242.36 18.35L242.36 18.35Q241.85 18.35 241.52 18.65Q241.20 18.94 241.20 19.42Z" fill="#FFFFFF" x="75.89"/></svg>